<?xml version="1.0" encoding="UTF-8"?>
<!DOCTYPE svg PUBLIC "-//W3C//DTD SVG 1.1//EN" "http://www.w3.org/Graphics/SVG/1.1/DTD/svg11.dtd">
<svg xmlns="http://www.w3.org/2000/svg" xmlns:xlink="http://www.w3.org/1999/xlink" version="1.1" width="292px" height="122px" viewBox="-0.5 -0.5 292 122"><defs/><g><g data-cell-id="0"><g data-cell-id="1"><g data-cell-id="NoAxw_Gimwfl64AOkPOF-1"><g/><g data-cell-id="NoAxw_Gimwfl64AOkPOF-2"><g><rect x="0" y="30" width="120" height="60" fill="#fffffe" stroke="#000000" pointer-events="all"/></g></g><g data-cell-id="NoAxw_Gimwfl64AOkPOF-3"><g/><g data-cell-id="NoAxw_Gimwfl64AOkPOF-4"><g><path d="M 150 80 L 170 20 L 270 20 L 250 80 Z" fill="#ff0000" stroke="rgb(0, 0, 0)" stroke-miterlimit="10" pointer-events="all"/></g></g><g data-cell-id="NoAxw_Gimwfl64AOkPOF-5"><g><path d="M 160 90 L 180 30 L 280 30 L 260 90 Z" fill="#00ff00" stroke="rgb(0, 0, 0)" stroke-miterlimit="10" pointer-events="all"/></g></g><g data-cell-id="NoAxw_Gimwfl64AOkPOF-6"><g><path d="M 170 100 L 190 40 L 290 40 L 270 100 Z" fill="#0000ff" stroke="rgb(0, 0, 0)" stroke-miterlimit="10" pointer-events="all"/></g></g></g><g data-cell-id="NoAxw_Gimwfl64AOkPOF-7"><g><path d="M 150 0 L 145 0 Q 140 0 140 10 L 140 50 Q 140 60 135 60 L 132.5 60 Q 130 60 135 60 L 137.5 60 Q 140 60 140 70 L 140 110 Q 140 120 145 120 L 150 120" fill="none" stroke="#000000" stroke-miterlimit="10" pointer-events="all"/></g></g></g></g></g></g></svg>