<svg xmlns="http://www.w3.org/2000/svg" viewBox="0 0 1000 600" width="22" height="14">
  <polygon points="268,452 620,49 630,38 659,37 670,46 680,55 683,80 676,91 673,95 296,527 287,537 260,540 249,532 245,528 83,367 73,356 73,327 83,317 92,308 118,306 128,313 133,317 268,452" 
           fill="#5face7" 
           stroke="#5face7"/>
  
  <polygon points="537,452 890,49 899,38 928,37 939,46 949,55 953,80 946,91 943,95 565,527 556,537 530,540 519,532 514,528 460,474 450,464 450,435 460,425 470,416 495,414 505,421 510,425 537,452" 
           fill="#5face7" 
           stroke="#5face7"/>
</svg>
